<svg height="457pt" viewBox="0 -15 457.14286 457" width="457pt" xmlns="http://www.w3.org/2000/svg"><path d="m179.84375 334.519531h97.371094v83.292969h-97.371094zm0 0" fill="#4b6981"/><path d="m277.214844 426.957031h-97.371094c-5.050781 0-9.144531-4.09375-9.144531-9.144531v-83.292969c0-5.050781 4.09375-9.144531 9.144531-9.144531h97.371094c5.046875 0 9.140625 4.09375 9.140625 9.144531v83.292969c0 5.050781-4.09375 9.144531-9.140625 9.144531zm-88.226563-18.289062h79.082031v-65.007813h-79.082031zm0 0" fill="#2a3d4f"/><path d="m295.226562 426.929688h-133.3125c-5.046874 0-9.140624-4.09375-9.140624-9.144532 0-5.046875 4.09375-9.140625 9.140624-9.140625h133.3125c5.050782 0 9.144532 4.09375 9.144532 9.140625 0 5.050782-4.09375 9.144532-9.144532 9.144532zm0 0" fill="#2a3d4f"/><path d="m448 29.414062c0-11.15625-9.042969-20.199218-20.195312-20.199218h-398.464844c-11.15625 0-20.195313 9.042968-20.195313 20.199218v251.230469h438.855469zm0 0" fill="#e7e4f3"/><path d="m448 289.785156h-438.855469c-5.050781 0-9.144531-4.09375-9.144531-9.140625v-251.234375c0-16.179687 13.160156-29.3398435 29.339844-29.3398435h398.464844c16.175781 0 29.339843 13.1601565 29.339843 29.3398435v251.234375c0 5.046875-4.09375 9.140625-9.144531 9.140625zm-429.714844-18.285156h420.570313v-242.089844c0-6.09375-4.957031-11.054687-11.050781-11.054687h-398.464844c-6.09375 0-11.054688 4.960937-11.054688 11.054687zm0 0" fill="#2a3d4f"/><path d="m9.144531 280.644531v33.710938c0 11.152343 9.039063 20.195312 20.195313 20.195312h398.464844c11.152343 0 20.195312-9.042969 20.195312-20.195312v-33.710938zm0 0" fill="#4b6981"/><path d="m427.804688 343.691406h-398.464844c-16.179688 0-29.339844-13.160156-29.339844-29.339844v-33.707031c0-5.050781 4.09375-9.144531 9.144531-9.144531h438.855469c5.050781 0 9.144531 4.09375 9.144531 9.144531v33.707031c0 16.179688-13.164062 29.339844-29.339843 29.339844zm-409.519532-53.90625v24.566406c0 6.09375 4.960938 11.054688 11.054688 11.054688h398.464844c6.09375 0 11.050781-4.960938 11.050781-11.054688v-24.566406zm0 0" fill="#2a3d4f"/><path d="m308.570312 144.929688c0 44.183593-35.816406 80-80 80-44.183593 0-80-35.816407-80-80 0-44.183594 35.816407-80 80-80 44.183594 0 80 35.816406 80 80zm0 0" fill="#eb675e"/><path d="m228.570312 234.070312c-49.152343 0-89.140624-39.988281-89.140624-89.140624 0-49.152344 39.988281-89.144532 89.140624-89.144532 49.152344 0 89.144532 39.992188 89.144532 89.144532 0 49.152343-39.992188 89.140624-89.144532 89.140624zm0-160c-39.070312 0-70.855468 31.785157-70.855468 70.859376 0 39.070312 31.785156 70.855468 70.855468 70.855468 39.074219 0 70.859376-31.785156 70.859376-70.855468 0-39.074219-31.785157-70.859376-70.859376-70.859376zm0 0" fill="#2a3d4f"/><path d="m265.191406 149.945312-59.695312 29.808594c-3.726563 1.863282-8.109375-.847656-8.109375-5.015625v-59.617187c0-4.164063 4.382812-6.875 8.109375-5.015625l59.695312 29.808593c4.136719 2.066407 4.136719 7.96875 0 10.03125zm0 0" fill="#e7e4f3"/><path d="m202.980469 189.5c-2.6875 0-5.363281-.742188-7.75-2.214844-4.375-2.710937-6.988281-7.402344-6.988281-12.546875v-59.617187c0-5.148438 2.609374-9.835938 6.988281-12.539063 4.382812-2.710937 9.75-2.953125 14.351562-.652343l59.695313 29.808593c5.03125 2.503907 8.160156 7.554688 8.160156 13.1875.003906 5.625-3.125 10.6875-8.160156 13.199219l-59.695313 29.808594c-2.101562 1.046875-4.355469 1.566406-6.601562 1.566406zm3.546875-68.660156v48.183594l48.246094-24.09375zm58.664062 29.105468h.089844zm0 0" fill="#2a3d4f"/></svg>